<?xml version="1.0" encoding="UTF-8" standalone="no"?><!DOCTYPE svg PUBLIC "-//W3C//DTD SVG 1.1//EN" "http://www.w3.org/Graphics/SVG/1.1/DTD/svg11.dtd"><svg width="100%" height="100%" viewBox="0 0 1000 1000" version="1.1" xmlns="http://www.w3.org/2000/svg" xmlns:xlink="http://www.w3.org/1999/xlink" xml:space="preserve" xmlns:serif="http://www.serif.com/" style="fill-rule:evenodd;clip-rule:evenodd;stroke-linecap:round;stroke-linejoin:round;stroke-miterlimit:1.5;"><rect x="-12" y="-12" width="1024" height="1024" style="fill:url(#_Linear1);"/><path d="M500,494.022l-227.826,-294.022c-0,0 2.932,468.674 -0,568.674c-0.706,24.075 -17.593,31.326 -17.593,31.326l151.41,0c0,0 -55.097,-3.313 -55.097,-30.716l0,-350.077l149.106,212.353l-0,-137.538Z" style="fill:url(#_Linear2);stroke:#ced0d6;stroke-width:2.5px;"/><path d="M500,494.022l227.826,-294.022c0,0 -2.932,468.674 0,568.674c0.706,24.075 17.593,31.326 17.593,31.326l-151.41,0c-0,0 55.097,-3.313 55.097,-30.716l-0,-350.077l-149.106,212.353l0,-137.538Z" style="fill:url(#_Linear3);stroke:#ced0d6;stroke-width:2.5px;"/><defs><linearGradient id="_Linear1" x1="0" y1="0" x2="1" y2="0" gradientUnits="userSpaceOnUse" gradientTransform="matrix(-8.23359e-14,-512,512,-8.23359e-14,500,500)"><stop offset="0" style="stop-color:#252525;stop-opacity:1"/><stop offset="1" style="stop-color:#6a6a6a;stop-opacity:1"/></linearGradient><linearGradient id="_Linear2" x1="0" y1="0" x2="1" y2="0" gradientUnits="userSpaceOnUse" gradientTransform="matrix(-464.454,-614.035,614.035,-464.454,652.344,762.232)"><stop offset="0" style="stop-color:#c0c0be;stop-opacity:1"/><stop offset="0.19" style="stop-color:#adacaa;stop-opacity:1"/><stop offset="0.4" style="stop-color:#767370;stop-opacity:1"/><stop offset="0.73" style="stop-color:#858380;stop-opacity:1"/><stop offset="1" style="stop-color:#c0c0be;stop-opacity:1"/></linearGradient><linearGradient id="_Linear3" x1="0" y1="0" x2="1" y2="0" gradientUnits="userSpaceOnUse" gradientTransform="matrix(185.153,-156.538,156.538,185.153,560.266,434.711)"><stop offset="0" style="stop-color:#9d9c9a;stop-opacity:1"/><stop offset="0.22" style="stop-color:#b9b8b7;stop-opacity:1"/><stop offset="0.5" style="stop-color:#f7f7f8;stop-opacity:1"/><stop offset="0.72" style="stop-color:#dddcdc;stop-opacity:1"/><stop offset="1" style="stop-color:#9d9c9a;stop-opacity:1"/></linearGradient></defs></svg>