<svg width="305" height="91" viewBox="0 0 305 91" fill="none" xmlns="http://www.w3.org/2000/svg"><path fill-rule="evenodd" clip-rule="evenodd" d="M3.3 44.21c-.633.13-1.267.41-1.9.837-.933.657-1.4 1.413-1.4 2.267 0 1.643.833 2.465 2.5 2.465.867 0 1.95-.23 3.25-.69.9-.69 2-2.153 3.3-4.387 3.133-5.356 7.066-14.162 11.8-26.418 0 11.96 1.233 20.01 3.7 24.15.466.625 1.033.937 1.7.937 1.7 0 3.983-2.152 6.85-6.457.233-.328 2.283-3.729 6.15-10.202a173.887 173.887 0 011.9-3.549c1.533-2.727 2.95-4.962 4.25-6.703-1.7 12.125-2.55 21.834-2.55 29.13 0 3.975.233 6.752.7 8.329.766 1.84 1.783 2.76 3.05 2.76 1.333 0 2.766-1.134 4.3-3.4-.8.623-1.534.936-2.2.936-.9 0-1.6-.51-2.1-1.528-.234-.526-.35-2.07-.35-4.633 0-5.554.383-12.536 1.15-20.948.8-8.806 1.55-13.57 2.25-14.293l3.1-3.007-3.1-2.415C42.516 20.73 36.6 29.965 31.9 35.09c-1.967 2.136-3.6 3.368-4.9 3.696-1.5-.164-2.634-1.741-3.4-4.731-.634-2.53-.95-5.783-.95-9.76 0-5.322.433-9.545 1.3-12.666l-4.3-1.232c-2.367 13.537-5.4 23.23-9.1 29.08-1.5 2.464-3.1 4.041-4.8 4.731-.967-.066-1.783-.066-2.45 0zm47.104 4.583c2.433-1.479 4.366-2.859 5.8-4.14.6-.559 1.066-1.052 1.4-1.479.233-.361.733-1.364 1.5-3.007.5-.985.966-1.478 1.4-1.478.466 0 .7.378.7 1.133 0 .493-.109 1.463-.325 2.908-.217 1.446-.325 2.481-.325 3.106 0 .985.266 1.61.8 1.873.333.164 1.066.246 2.2.246 1.166 0 2.166-.246 3-.74l.1-.098.05.05c0 .164-.6.624-1.8 1.38-1.367.854-2.55 1.28-3.55 1.28-.9 0-1.6-.311-2.1-.935-.267-.362-.55-.97-.85-1.824-.234-.657-.45-1.019-.65-1.084-.267-.066-1.367.41-3.3 1.429-1.934 1.018-3.15 1.528-3.65 1.528-.2 0-.334-.05-.4-.148zm11.3-15.427c2.033-7.952 4.55-11.928 7.55-11.928 1.3.296 1.95.575 1.95.838 0 .164-.334.444-1 .838-.767.493-1.267.92-1.5 1.281-2.034 3.549-4.367 6.54-7 8.97zm19.403 23.017c-1.8 5.783-4.766 13.029-8.9 21.736-3.866 8.182-6.116 12.273-6.75 12.273-.133 0-.1-.361.1-1.084 1.667-6.112 3.217-10.91 4.65-14.392.967-2.366 2.184-4.732 3.65-7.098.534-1.019 1.2-2.497 2-4.436 1.9-4.666 4.217-11.254 6.95-19.764-.7.953-2.683 2.283-5.95 3.992-2.666 1.38-4.75 2.07-6.25 2.07-1.766 0-2.65-.936-2.65-2.81 0-1.05.25-2.2.75-3.45 1.167-2.891 2.9-4.863 5.2-5.914 1.234-.592 3.284-1.035 6.15-1.33-3.233.492-5.616 1.61-7.15 3.35-.6.79-.9 1.972-.9 3.55 0 2.102.817 3.269 2.45 3.499 1.1.131 2.667-.51 4.7-1.922 2.2-1.578 3.3-3.155 3.3-4.732 0-.821-.35-1.594-1.05-2.316 1.867.624 3.2.985 4 1.084.5.098.75.46.75 1.084 0 .263-.033.542-.1.838a279.91 279.91 0 01-4.95 15.772zm24.804-7.787c-1.666-.362-2.5-1.249-2.5-2.662 0-.46.117-.92.35-1.38-.7.789-2.616 1.89-5.75 3.302-2.566 1.15-4.583 1.725-6.05 1.725-1.766 0-2.65-.788-2.65-2.365 0-.986.284-1.923.85-2.81 1.5-2.464 2.25-3.992 2.25-4.584 0-.328-.466-1.347-1.4-3.055 2.334 1.051 3.5 2.185 3.5 3.4 0 .362-.116.69-.35.986-1.1 1.282-1.65 2.481-1.65 3.598 0 1.348 1.05 2.087 3.15 2.218 1.1.099 2.617-.443 4.55-1.626 2.134-1.282 3.2-2.563 3.2-3.845 0-.69-.333-1.33-1-1.922.9.263 2.184.559 3.85.887.5.099.75.395.75.887 0 .197-.05.428-.15.69-.1.592-.15 1.15-.15 1.676 0 2.727 1.283 4.666 3.85 5.816-.633 0-2.183-.312-4.65-.936zm11.204-5.175c2.367-1.38 4.2-2.777 5.5-4.19 1.1-1.216 1.65-2.234 1.65-3.056 0-.723-.783-1.084-2.35-1.084-1.3 0-2.475.476-3.525 1.43-1.05.952-2.191 2.546-3.425 4.78l-4.15 3.697c.767.197 1.734.213 2.9.049.134.624.267 1.232.4 1.824.3.953 1.1 1.61 2.4 1.971 1.1.296 2.083.444 2.95.444 1.167 0 2.45-.329 3.85-.986 1.667-.854 3.35-1.725 5.05-2.612-2 .591-4.083.887-6.25.887-1.633 0-3.1-.148-4.4-.444-.667-.493-1-.936-1-1.33 0-.395.133-.855.4-1.38zm.2-2.12c.167-.591.783-1.643 1.85-3.154.833-1.216 1.5-1.824 2-1.824.267 0 .55.099.85.296.133.131.2.295.2.493 0 1.018-1.633 2.415-4.9 4.19zm12.754 6.112a53.48 53.48 0 001.25-1.577c.9-1.282 1.55-2.481 1.95-3.598 6.433-17.153 12.083-29.261 16.95-36.326 2-2.957 3.783-4.797 5.35-5.52.533.033.8.526.8 1.479 0 5.06-6.933 18.729-20.8 41.007-.133.493-.2.953-.2 1.38 0 2.038 1.383 3.122 4.15 3.253.533 0 1.65-.295 3.35-.887-.867.92-1.992 1.692-3.375 2.317-1.383.624-2.492.87-3.325.74-1.767-.494-2.633-2.104-2.6-4.831l-4.3 4.485c-.3.132-.5.197-.6.197-.067 0-.1-.033-.1-.098 0-.263.5-.937 1.5-2.021zm6.75-8.626c1.8-3.614 4.45-8.362 7.95-14.244 3.633-6.145 6.017-10.301 7.15-12.47 2.1-4.074 3.25-7.294 3.45-9.66 0-.099-.034-.148-.1-.148-1 0-7.15 12.174-18.45 36.522zm49.458-26.812c.033.131-.009.402-.125.813-.117.41-.175.649-.175.715 0 .164-.175.336-.525.517-.35.18-.709.271-1.075.271-.7 0-1.117-.361-1.25-1.084-.034-.46.25-.74.85-.838.133-.526-.034-1.076-.5-1.651-.467-.575-.984-.945-1.55-1.11a2.763 2.763 0 00-.75-.098c-1.234 0-2.459.584-3.675 1.75-1.217 1.167-1.875 2.522-1.975 4.066-.1 1.742.066 3.204.5 4.387.433 1.183 1.466 2.99 3.1 5.422 1.8 2.694 2.7 4.846 2.7 6.456 0 1.808-1.3 4.272-3.9 7.394-3.334 4.041-7 7.968-11 11.78-4.867 4.665-8.083 6.998-9.65 6.998a.94.94 0 01-.6-.197c-.767-.756-1.15-1.281-1.15-1.577 0-.131.083-.197.25-.197.367 0 1.05.246 2.05.74 13.667-8.906 20.5-17.317 20.5-25.236 0-2.563-.684-4.7-2.05-6.408-3-3.351-4.5-6.39-4.5-9.118 0-1.807.633-3.401 1.9-4.781.866-.92 1.825-1.586 2.875-1.996 1.05-.411 2.375-.616 3.975-.616 3.466 0 5.383 1.199 5.75 3.598zm13.604 36.67c-1.867-.394-2.8-1.364-2.8-2.908 0-.559.133-1.084.4-1.577-.767.887-2.917 2.12-6.45 3.696-2.867 1.282-5.117 1.923-6.75 1.923-1.9 0-2.85-.871-2.85-2.613 0-.952.266-2.02.8-3.203 1.3-2.728 3.4-4.83 6.3-6.31 2.2-1.15 4.633-1.84 7.3-2.07-4.334 1.48-7.35 3.056-9.05 4.732-1.267 1.446-1.9 2.793-1.9 4.042 0 1.511 1.183 2.35 3.55 2.514 1.2.098 2.9-.51 5.1-1.824 2.4-1.446 3.6-2.892 3.6-4.337 0-.756-.384-1.463-1.15-2.12 1 .263 2.433.592 4.3.986.6.099.9.427.9.986 0 .23-.067.493-.2.788a9.38 9.38 0 00-.2 1.873c0 3.056 1.45 5.225 4.35 6.506-.734 0-2.484-.361-5.25-1.084zm4.054-6.555c-.1.263-.15.476-.15.64 0 .23.1.362.3.395.066 0 1.425-1.01 4.075-3.032 2.65-2.02 4.308-2.949 4.975-2.784.466.131.7.443.7.936 0 .953-.95 2.884-2.85 5.792-1.9 2.908-2.85 4.559-2.85 4.953 0 .131.05.214.15.246.733.23 3-1.133 6.8-4.09 4.1-3.155 6.2-4.748 6.3-4.781.1-.033.2-.05.3-.05.299 0 .449.247.449.74 0 .755-.433 2.308-1.299 4.657-.867 2.35-1.3 3.672-1.3 3.968 0 .099.033.148.1.148.966.098 2.233-.197 3.799-.887a18.668 18.668 0 003.4-1.873c.2-.263.417-.526.65-.789a43.29 43.29 0 00-1.9.64c-1.033.33-1.816.494-2.35.494-.633 0-.949-.214-.949-.64 0-.165.033-.33.099-.494 1.367-4.206 2.05-6.884 2.05-8.034 0-.427-.083-.657-.25-.69-.5-.131-2.041.65-4.624 2.341-2.584 1.693-4.059 2.506-4.425 2.44-.1-.033-.15-.131-.15-.296 0-.394.55-1.782 1.65-4.164 1.1-2.383 1.65-3.919 1.65-4.609 0-.361-.134-.559-.4-.591-.534.065-1.35.41-2.45 1.035-2.634 1.511-6.467 4.304-11.5 8.379zm40.603-4.978c-.833-1.052-2.366-1.561-4.6-1.528-1.533.065-3.3.821-5.3 2.267-1.833 1.347-3.083 2.662-3.75 3.943-.866 1.676-1.299 2.94-1.299 3.795 0 1.807 1.416 3.122 4.249 3.943a7.14 7.14 0 001.9.247c1.967 0 3.859-.575 5.675-1.725 1.817-1.15 2.675-2.35 2.575-3.599-2.066 1.71-4.25 2.564-6.55 2.564-.766 0-1.416-.083-1.95-.247-1.6-.558-2.4-1.594-2.4-3.105 0-.789.217-1.61.65-2.465.5-1.018 1.4-2.004 2.7-2.957 1.634-1.15 3.35-1.725 5.15-1.725.967 0 1.95.197 2.95.592zm25.104-26.27c-1.066.163-1.516.607-1.35 1.33.267.723.65 1.084 1.15 1.084.367 0 .783-.164 1.25-.493 1.2-.755 2.4-1.528 3.6-2.316 1.767-1.249 2.65-2.3 2.65-3.155 0-.197-.033-.378-.1-.542-.767-1.544-1.267-2.497-1.5-2.859-.633-.821-1.4-1.232-2.3-1.232-1.067 0-5.166 4.354-12.3 13.062-7.233 8.806-11.566 14.786-13 17.94-.733 1.643-1.1 3.615-1.1 5.915 0 3.68.6 6.769 1.8 9.266.2.362.517.542.95.542 1 0 2.284-.903 3.85-2.71l3.05-5.422c.867-1.216 1.784-1.791 2.75-1.725.834.098 1.217.542 1.15 1.33-.2.888-.383 1.775-.55 2.662-.233 1.249-.108 2.292.375 3.13.484.838 1.742 1.7 3.775 2.587.3.132 1.784.707 4.45 1.726l4.8.985c-5.3-1.807-8.6-4.271-9.9-7.393-.3-.986-.45-2.054-.45-3.204 0-.394.017-.903.05-1.528.034-.624.05-1.051.05-1.281 0-.986-.45-1.511-1.35-1.577-2.866-.197-5.383.591-7.55 2.366l-3.05 5.618c-1.133-2.661-1.7-5.158-1.7-7.491 0-1.512.217-2.777.65-3.796 1.434-2.858 5.467-8.379 12.1-16.56 6.567-8.084 10.3-12.19 11.2-12.322.433-.033.875.197 1.325.69.45.493.675 1.068.675 1.725 0 1.84-1.817 3.056-5.45 3.647zm4.104 32.578c2.367-1.38 4.2-2.776 5.5-4.189 1.1-1.216 1.65-2.234 1.65-3.056 0-.723-.783-1.084-2.35-1.084-1.3 0-2.475.476-3.525 1.43-1.05.952-2.191 2.546-3.425 4.78l-4.15 3.697c.767.197 1.734.213 2.9.049.134.624.267 1.232.4 1.824.3.953 1.1 1.61 2.4 1.971 1.1.296 2.084.444 2.95.444 1.167 0 2.45-.329 3.85-.986 1.667-.854 3.35-1.725 5.05-2.612-2 .591-4.083.887-6.25.887-1.633 0-3.1-.148-4.4-.444-.666-.493-1-.936-1-1.33 0-.395.134-.855.4-1.38zm.2-2.119c.167-.591.784-1.643 1.85-3.154.834-1.216 1.5-1.824 2-1.824.267 0 .55.099.85.296a.66.66 0 01.2.493c0 1.018-1.633 2.415-4.9 4.19zm27.754 5.126c.2.132.417.197.65.197.733 0 1.5-.51 2.3-1.528.233-.328.35-.608.35-.838 0-.263-.167-.427-.5-.492-1.833.821-6.283 2.645-13.35 5.47.7-2.398 1.483-4.55 2.35-6.456 2.1-4.568 4.5-7.558 7.2-8.97a2.143 2.143 0 00-.95-.247c-.367 0-.667.148-.9.444l-.2.147c-3.333 2.366-6.067 3.55-8.2 3.55-1.233 0-2.117-.346-2.65-1.036l-.4-.986c-.933.625-1.267 1.315-1 2.07.533.822 1.5 1.233 2.9 1.233 1.5 0 3.35-.51 5.55-1.528-.567.657-1.583 2.3-3.05 4.928-.967 1.512-1.833 3.22-2.6 5.126-.8 2.005-1.2 3.467-1.2 4.387 0 .493.117.772.35.838 2.833-1.972 7.283-4.075 13.35-6.309zm-98.137-18.613c.139.365.208.662.208.89 0 .387-.242.797-.728 1.23l-2.116 1.882-2.707 1.334c1.781-2.417 2.741-4.811 2.88-7.182 1.11.068 1.931.683 2.463 1.846z" fill="#000"/></svg>